<svg width="74" height="74" viewBox="0 0 74 74" fill="none" xmlns="http://www.w3.org/2000/svg">
<path d="M20.6072 21.3288C18.4888 22.1411 17.4693 24.5507 18.3615 26.6367L24.7536 41.5818C25.6224 43.613 27.9732 44.5553 30.0043 43.6866L53.975 33.4342C55.9735 32.5794 56.9236 30.2851 56.1146 28.2676L50.4371 14.1099C49.6237 12.0815 47.3329 11.0815 45.2924 11.8638L20.6072 21.3288Z" fill="#FCBEBA"/>
<g filter="url(#filter0_b_1009_2207)">
<path d="M17 20C14.7909 20 13 21.7909 13 24L13 54C13 56.2091 14.7909 58 17 58L57 58C59.2091 58 61 56.2091 61 54L61 24C61 21.7909 59.2091 20 57 20L17 20Z" fill="url(#paint0_linear_1009_2207)"/>
</g>
<g opacity="0.5" filter="url(#filter1_b_1009_2207)">
<path d="M14 50.5913L14 24.2999C14 22.4774 15.4775 20.9999 17.3 20.9999L45.9802 21.0002" stroke="url(#paint1_linear_1009_2207)" stroke-width="2" stroke-linecap="round"/>
</g>
<g filter="url(#filter2_di_1009_2207)">
<path fill-rule="evenodd" clip-rule="evenodd" d="M34.8126 45.0335C35.1378 45.3638 35.6381 45.3638 35.9633 45.0335L35.9633 39.9052C38.5215 40.3818 44.3112 42.4625 42.957 51.5118C42.957 51.5118 47.61 46.0492 45.4086 40.2309C45.3119 40.0455 45.2134 39.8429 45.1087 39.6275C44.0807 37.5125 42.4514 34.1604 35.9633 33.7647L35.9633 29.3571C35.6381 29.0268 35.1378 29.0268 34.8126 29.3571L27.658 36.5982C27.3328 36.9285 27.3328 37.4367 27.658 37.767L34.8126 45.0335Z" fill="white"/>
</g>
<defs>
<filter id="filter0_b_1009_2207" x="10" y="17" width="54" height="44" filterUnits="userSpaceOnUse" color-interpolation-filters="sRGB">
<feFlood flood-opacity="0" result="BackgroundImageFix"/>
<feGaussianBlur in="BackgroundImage" stdDeviation="1.5"/>
<feComposite in2="SourceAlpha" operator="in" result="effect1_backgroundBlur_1009_2207"/>
<feBlend mode="normal" in="SourceGraphic" in2="effect1_backgroundBlur_1009_2207" result="shape"/>
</filter>
<filter id="filter1_b_1009_2207" x="10" y="17" width="39.98" height="37.5918" filterUnits="userSpaceOnUse" color-interpolation-filters="sRGB">
<feFlood flood-opacity="0" result="BackgroundImageFix"/>
<feGaussianBlur in="BackgroundImage" stdDeviation="1.5"/>
<feComposite in2="SourceAlpha" operator="in" result="effect1_backgroundBlur_1009_2207"/>
<feBlend mode="normal" in="SourceGraphic" in2="effect1_backgroundBlur_1009_2207" result="shape"/>
</filter>
<filter id="filter2_di_1009_2207" x="25.4141" y="27.1094" width="26.5859" height="30.4023" filterUnits="userSpaceOnUse" color-interpolation-filters="sRGB">
<feFlood flood-opacity="0" result="BackgroundImageFix"/>
<feColorMatrix in="SourceAlpha" type="matrix" values="0 0 0 0 0 0 0 0 0 0 0 0 0 0 0 0 0 0 127 0" result="hardAlpha"/>
<feOffset dx="2" dy="2"/>
<feGaussianBlur stdDeviation="2"/>
<feComposite in2="hardAlpha" operator="out"/>
<feColorMatrix type="matrix" values="0 0 0 0 1 0 0 0 0 0.264537 0 0 0 0 0.216667 0 0 0 1 0"/>
<feBlend mode="multiply" in2="BackgroundImageFix" result="effect1_dropShadow_1009_2207"/>
<feBlend mode="normal" in="SourceGraphic" in2="effect1_dropShadow_1009_2207" result="shape"/>
<feColorMatrix in="SourceAlpha" type="matrix" values="0 0 0 0 0 0 0 0 0 0 0 0 0 0 0 0 0 0 127 0" result="hardAlpha"/>
<feOffset dx="1.2"/>
<feComposite in2="hardAlpha" operator="arithmetic" k2="-1" k3="1"/>
<feColorMatrix type="matrix" values="0 0 0 0 1 0 0 0 0 0.721429 0 0 0 0 0.721429 0 0 0 1 0"/>
<feBlend mode="normal" in2="shape" result="effect2_innerShadow_1009_2207"/>
</filter>
<linearGradient id="paint0_linear_1009_2207" x1="16" y1="32.625" x2="56.4595" y2="47.3885" gradientUnits="userSpaceOnUse">
<stop stop-color="#F9645A"/>
<stop offset="1" stop-color="#F24338"/>
</linearGradient>
<linearGradient id="paint1_linear_1009_2207" x1="13.9996" y1="48.4329" x2="41.5025" y2="22.4548" gradientUnits="userSpaceOnUse">
<stop stop-color="white" stop-opacity="0.1"/>
<stop offset="0.489583" stop-color="white"/>
<stop offset="1" stop-color="white" stop-opacity="0.1"/>
</linearGradient>
</defs>
</svg>
